<svg xmlns="http://www.w3.org/2000/svg" width="9.995" height="20.002" viewBox="0 0 9.995 20.002">
  <path id="fb" d="M1462.276,6680h-2.24a5.044,5.044,0,0,0-3.693,1.135,4.564,4.564,0,0,0-1.122,3.344v1.4a.7.7,0,0,1-.722.671h-.774a.7.7,0,0,0-.722.672v2.1a.7.7,0,0,0,.722.671h.774a.7.7,0,0,1,.722.672v8.657a.7.7,0,0,0,.722.672h3.005a.7.7,0,0,0,.722-.672v-8.657a.7.7,0,0,1,.722-.672h1.518a.8.8,0,0,0,.8-.668l.24-2.111a.61.61,0,0,0-.646-.668h-1.909a.7.7,0,0,1-.722-.671v-1.052a3.508,3.508,0,0,1,.039-.6,1.129,1.129,0,0,1,.176-.419.722.722,0,0,1,.444-.285,3.356,3.356,0,0,1,.816-.079h1.131a.7.7,0,0,0,.722-.672v-2.1A.7.7,0,0,0,1462.276,6680Z" transform="translate(-1453.003 -6679.999)" fill="#fff"/>
</svg>
